<svg height="1064pt" viewBox="-71 0 1064 1064.001" width="1064pt" xmlns="http://www.w3.org/2000/svg"><path d="m17.734375 975.332031c0 39.175781 31.757813 70.933594 70.933594 70.933594h744.800781c39.171875 0 70.933594-31.757813 70.933594-70.933594v-35.464843h-886.667969zm0 0" fill="#bcbec0"/><path d="m762.535156 17.734375h-673.867187c-39.175781 0-70.933594 31.757813-70.933594 70.929687v461.070313h886.667969v-390.132813h-141.867188zm0 0" fill="#bcbec0"/><path d="m762.535156 159.601562h141.867188l-141.867188-141.867187zm0 0" fill="#939598"/><path d="m17.734375 939.867188h886.667969v-390.132813h-886.667969zm585.199219-195.066407h-70.933594c-19.585938 0-35.464844-15.878906-35.464844-35.46875v-70.933593c0-19.585938 15.878906-35.464844 35.464844-35.464844-19.585938 0-35.464844 15.878906-35.464844 35.464844v70.933593c0 19.589844 15.878906 35.46875 35.464844 35.46875h70.933594c19.589844 0 35.46875 15.878907 35.46875 35.464844v70.933594c0 19.589843-15.878906 35.46875-35.46875 35.46875 19.589844 0 35.46875-15.878907 35.46875-35.46875v-70.933594c0-19.585937-15.878906-35.464844-35.46875-35.464844zm-248.265625 141.867188c39.175781 0 70.933593-31.757813 70.933593-70.933594 0 39.175781-31.757812 70.933594-70.933593 70.933594s-70.933594-31.757813-70.933594-70.933594c0 39.175781 31.757813 70.933594 70.933594 70.933594zm0 0" fill="#ffe477"/><path d="m921.972656 159.601562c.0625-4.683593-1.753906-9.199218-5.035156-12.539062l-141.867188-141.867188c-3.34375-3.277343-7.855468-5.082031-12.535156-5.019531v-.175781h-673.867187c-48.945313.0585938-88.6093752 39.722656-88.667969 88.667969v886.667969c.0585938 48.941406 39.722656 88.605468 88.667969 88.664062h744.800781c48.945312-.058594 88.605469-39.722656 88.664062-88.664062zm-141.707031-99.058593 81.328125 81.324219h-81.328125zm-691.597656-25.074219h656.132812v124.132812c0 9.792969 7.941407 17.730469 17.734375 17.730469h124.132813v354.667969h-851.199219v-443.332031c0-29.382813 23.816406-53.199219 53.199219-53.199219zm798 886.664062h-851.199219v-354.664062h851.199219zm-53.199219 106.398438h-744.800781c-29.382813 0-53.199219-23.816406-53.199219-53.199219v-17.730469h851.199219v17.730469c0 29.382813-23.820313 53.199219-53.199219 53.199219zm0 0"/><path d="m354.667969 904.398438c48.945312-.058594 88.609375-39.71875 88.667969-88.664063v-212.800781c0-9.792969-7.941407-17.734375-17.734376-17.734375-9.792968 0-17.734374 7.941406-17.734374 17.734375v212.800781c0 29.378906-23.816407 53.199219-53.199219 53.199219-29.382813 0-53.199219-23.820313-53.199219-53.199219 0-9.796875-7.9375-17.734375-17.734375-17.734375-9.792969 0-17.730469 7.941406-17.730469 17.734375.054688 48.945313 39.71875 88.605469 88.664063 88.664063zm0 0"/><path d="m602.933594 868.933594h-106.398438c-9.792968 0-17.734375 7.9375-17.734375 17.730468 0 9.796876 7.941407 17.734376 17.734375 17.734376h106.398438c29.382812 0 53.199218-23.816407 53.199218-53.199219v-70.933594c0-29.382813-23.816406-53.199219-53.199218-53.199219h-70.933594c-9.792969 0-17.730469-7.9375-17.730469-17.734375v-70.933593c0-9.792969 7.9375-17.730469 17.730469-17.730469h106.402344c9.792968 0 17.730468-7.941407 17.730468-17.734375 0-9.792969-7.9375-17.734375-17.730468-17.734375h-106.402344c-29.378906 0-53.199219 23.820312-53.199219 53.203125v70.933594c0 29.378906 23.820313 53.199218 53.199219 53.199218h70.933594c9.792968 0 17.734375 7.9375 17.734375 17.730469v70.933594c0 9.792969-7.941407 17.734375-17.734375 17.734375zm0 0"/></svg>